<?xml version="1.0" standalone="no"?>
<svg xmlns="http://www.w3.org/2000/svg" viewBox="0 0 98 68" width="98" height="68"><g fill="#00936f" color="#00936f" transform="translate(31.473 0) scale(0.673077) "><svg width="52.0" height="52.0" x="0.0" y="0.0" viewBox="0 0 52 52"><path fill="currentColor" fill-rule="evenodd" d="M31.335 30.191v-4.42c2.267-.842 3.9-3.869 3.9-7.56 0-3.266-.426-6.345-1.206-8.685C32.843 5.95 31.2 5.2 30.035 5.2c-3.577 0-5.2 6.74-5.2 13 0 3.702 1.633 6.718 3.9 7.56v6.043A43.104 43.104 0 0 0 26 33.821a43.175 43.175 0 0 0-2.704-1.997 39.208 39.208 0 0 0-3.338-2.038v-4.077c1.788-.79 3.068-3.203 3.068-6.126 0-2.59-.344-5.044-.968-6.916-.988-2.964-2.392-3.577-3.4-3.577-1.01 0-2.413.624-3.401 3.577-.624 1.862-.967 4.316-.967 6.916 0 2.923 1.268 5.335 3.068 6.126v2.766A41.305 41.305 0 0 0 2.62 24.773c.291-5.793 2.693-11.201 6.822-15.33C13.873 5.033 19.75 2.6 26 2.6c6.25 0 12.126 2.434 16.546 6.854 4.13 4.128 6.532 9.536 6.823 15.33a41.456 41.456 0 0 0-18.034 5.407m-1.3-6.791c-1.227 0-2.6-2.226-2.6-5.2 0-2.985.385-5.782 1.071-7.862.697-2.101 1.415-2.538 1.53-2.538.114 0 .82.437 1.528 2.538.697 2.08 1.071 4.877 1.071 7.862 0 2.974-1.373 5.2-2.6 5.2m6.115 22.287a43.776 43.776 0 0 0-1.362-2.225 28.498 28.498 0 0 1 11.097-5.096 23.137 23.137 0 0 1-2.621 3.442 25.736 25.736 0 0 0-7.114 3.88M18.668 23.4c-.718 0-1.768-1.487-1.768-3.806 0-4.743 1.196-7.416 1.758-7.852.208.176.655.77 1.07 2.194.448 1.56.698 3.567.698 5.668 0 2.309-1.04 3.796-1.758 3.796m.77 12.116a36.326 36.326 0 0 0-16.495-5.502 24.536 24.536 0 0 1-.301-2.63 38.714 38.714 0 0 1 19.198 6.593A38.93 38.93 0 0 1 34.372 47.85c-.822.312-1.664.583-2.527.801a36.628 36.628 0 0 0-12.407-13.135m6.79 13.884a31.23 31.23 0 0 0-10.971-10.317 31.117 31.117 0 0 0-10.691-3.64 23.45 23.45 0 0 1-1.01-2.745 33.725 33.725 0 0 1 14.478 5.023A33.867 33.867 0 0 1 29.14 49.192c-.947.125-1.924.198-2.912.208m-7.52-1.154a26.187 26.187 0 0 0-7.55-5.44 28.536 28.536 0 0 0-2.402-.998 23.85 23.85 0 0 1-2.631-3.453 28.598 28.598 0 0 1 7.862 2.985 28.801 28.801 0 0 1 8.944 7.852c-1.446-.177-2.85-.5-4.222-.946m28.714-12.813A31.322 31.322 0 0 0 33.28 41.33a38.429 38.429 0 0 0-1.622-2.028 33.705 33.705 0 0 1 16.775-6.615c-.281.936-.614 1.851-1.009 2.746m1.633-5.419A36.478 36.478 0 0 0 29.9 37.367a52.264 52.264 0 0 0-1.882-1.83 38.83 38.83 0 0 1 21.34-8.154 24.235 24.235 0 0 1-.301 2.631m-4.67-22.401C39.478 2.704 32.947 0 26 0 19.053 0 12.522 2.704 7.613 7.613 2.704 12.522 0 19.053 0 26c0 6.947 2.704 13.478 7.613 18.387C12.522 49.296 19.053 52 26 52c6.947 0 13.478-2.704 18.387-7.613C49.296 39.478 52 32.947 52 26c0-6.947-2.704-13.478-7.613-18.387"></path></svg></g><line x1="32.522000000000006" y1="41" x2="65.422" y2="41" stroke="#1c2149" stroke-linecap="round"></line><path fill="#1c2149" fill-rule="nonzero" d="M10.75 1.51L10.75 1.51L10.03 2.54Q8.42 1.54 6.74 1.54L6.74 1.54Q4.44 1.54 3.12 3.43L3.12 3.43Q1.90 5.16 1.90 8.04L1.90 8.04Q1.90 11.04 3.48 12.72L3.48 12.72Q4.82 14.18 6.94 14.18L6.94 14.18Q8.66 14.18 10.22 13.06L10.22 13.06L10.94 14.14Q9.07 15.77 6.70 15.77L6.70 15.77Q3.41 15.77 1.54 13.22L1.54 13.22Q0 11.14 0 8.04L0 8.04Q0 4.58 1.87 2.23L1.87 2.23Q3.65 0 6.41 0L6.41 0Q8.86 0 10.75 1.51ZM14.02 0.86L15.62 0L15.62 15.48L14.02 15.48L14.02 0.86ZM28.22 10.06L28.22 10.58L20.45 10.58Q20.54 12.34 21.66 13.39Q22.78 14.45 24.55 14.45L24.55 14.45Q26.04 14.45 27.46 13.56L27.46 13.56L28.01 14.52Q26.42 15.77 24.19 15.77L24.19 15.77Q21.60 15.77 20.06 14.06L20.06 14.06Q18.65 12.53 18.65 10.08L18.65 10.08Q18.65 7.54 20.16 5.83L20.16 5.83Q21.53 4.30 23.54 4.30L23.54 4.30Q25.97 4.30 27.24 6.26L27.24 6.26Q28.22 7.80 28.22 10.06L28.22 10.06ZM20.42 9.29L20.42 9.29L26.57 9.29Q26.50 7.54 25.72 6.55Q24.94 5.57 23.57 5.57L23.57 5.57Q22.27 5.57 21.40 6.60Q20.52 7.63 20.42 9.29ZM39.24 8.86L39.24 15.48L38.04 15.48L37.80 14.30Q36.34 15.77 34.15 15.77L34.15 15.77Q32.50 15.77 31.51 14.84Q30.53 13.92 30.53 12.38L30.53 12.38Q30.53 8.64 36.00 8.64L36.00 8.64L37.66 8.64L37.66 8.50Q37.66 5.64 34.87 5.64L34.87 5.64Q33.29 5.64 31.82 6.70L31.82 6.70L31.30 5.81Q32.95 4.30 35.33 4.30L35.33 4.30Q37.22 4.30 38.23 5.47Q39.24 6.65 39.24 8.86L39.24 8.86ZM37.66 12.77L37.66 9.82L36.19 9.82Q32.26 9.82 32.26 12.24L32.26 12.24Q32.26 13.27 32.87 13.86Q33.48 14.45 34.58 14.45L34.58 14.45Q35.54 14.45 36.43 13.97Q37.32 13.49 37.66 12.77L37.66 12.77ZM52.10 8.98L52.10 15.48L50.52 15.48L50.52 9.10Q50.52 5.69 47.54 5.69L47.54 5.69Q46.68 5.69 45.84 6.10Q45.00 6.50 44.54 7.13L44.54 7.13L44.54 15.48L42.94 15.48L42.94 4.58L44.28 4.58L44.42 5.74L44.50 5.74Q45.91 4.30 48.05 4.30L48.05 4.30Q52.10 4.30 52.10 8.98L52.10 8.98ZM71.57 1.51L71.57 1.51L70.85 2.54Q69.24 1.54 67.56 1.54L67.56 1.54Q65.26 1.54 63.94 3.43L63.94 3.43Q62.71 5.16 62.71 8.04L62.71 8.04Q62.71 11.04 64.30 12.72L64.30 12.72Q65.64 14.18 67.75 14.18L67.75 14.18Q69.48 14.18 71.04 13.06L71.04 13.06L71.76 14.14Q69.89 15.77 67.51 15.77L67.51 15.77Q64.22 15.77 62.35 13.22L62.35 13.22Q60.82 11.14 60.82 8.04L60.82 8.04Q60.82 4.58 62.69 2.23L62.69 2.23Q64.46 0 67.22 0L67.22 0Q69.67 0 71.57 1.51ZM74.95 4.58L76.54 4.58L76.54 15.48L74.95 15.48L74.95 4.58ZM74.71 1.03L74.71 1.03Q74.71 0.62 75.02 0.31Q75.34 0 75.77 0L75.77 0Q76.20 0 76.51 0.31Q76.82 0.62 76.82 1.03L76.82 1.03Q76.82 1.49 76.51 1.79Q76.20 2.09 75.77 2.09L75.77 2.09Q75.31 2.09 75.01 1.79Q74.71 1.49 74.71 1.03ZM86.14 5.90L82.80 5.90L82.78 12.72Q82.78 14.47 84.19 14.47L84.19 14.47Q84.98 14.47 85.75 14.06L85.75 14.06L86.33 14.95Q85.15 15.77 83.86 15.77L83.86 15.77Q82.58 15.77 81.89 14.98Q81.19 14.18 81.19 12.77L81.19 12.77L81.19 5.90L79.54 5.90L79.54 4.58L81.22 4.58L81.22 2.21L82.80 1.39L82.80 4.58L86.14 4.58L86.14 5.90ZM96.22 4.58L97.94 4.58L93.19 17.14Q92.11 20.06 90.22 20.06L90.22 20.06Q89.02 20.06 87.82 19.20L87.82 19.20L88.34 18.34Q89.16 18.77 89.78 18.77L89.78 18.77Q90.98 18.77 91.87 16.54L91.87 16.54L92.30 15.48L91.90 15.48L87.70 4.58L89.40 4.58L92.86 13.82L96.22 4.58Z" transform="translate(0, 47)"></path></svg>